<mxfile host="www.draw.io" modified="2019-11-26T15:55:32.952Z" agent="Mozilla/5.0 (Windows NT 10.0; Win64; x64) AppleWebKit/537.36 (KHTML, like Gecko) Chrome/77.0.3865.93 Safari/537.36 Vivaldi/2.8.1664.40" etag="puLj9giCHmISzH69eO-l" version="12.3.1" type="github" pages="1">
  <diagram id="6OIJU_WMMMpKXvqXkIJ8" name="Page-1">
    <mxGraphModel dx="1662" dy="772" grid="1" gridSize="10" guides="1" tooltips="1" connect="1" arrows="1" fold="1" page="1" pageScale="1" pageWidth="1600" pageHeight="1200" math="0" shadow="0">
      <root>
        <mxCell id="0"/>
        <mxCell id="1" parent="0"/>
        <mxCell id="f69RbL6vU4NUklGSDR2k-7" value="" style="edgeStyle=orthogonalEdgeStyle;rounded=0;orthogonalLoop=1;jettySize=auto;html=1;entryX=0;entryY=0.5;entryDx=0;entryDy=0;" edge="1" parent="1" source="f69RbL6vU4NUklGSDR2k-1" target="f69RbL6vU4NUklGSDR2k-5">
          <mxGeometry relative="1" as="geometry">
            <mxPoint x="520" y="260" as="targetPoint"/>
          </mxGeometry>
        </mxCell>
        <mxCell id="f69RbL6vU4NUklGSDR2k-1" value="JSON config" style="shape=note;whiteSpace=wrap;html=1;backgroundOutline=1;darkOpacity=0.05;size=24;" vertex="1" parent="1">
          <mxGeometry x="40" y="70" width="80" height="100" as="geometry"/>
        </mxCell>
        <mxCell id="f69RbL6vU4NUklGSDR2k-9" value="" style="edgeStyle=orthogonalEdgeStyle;rounded=0;orthogonalLoop=1;jettySize=auto;html=1;entryX=0;entryY=0.5;entryDx=0;entryDy=0;" edge="1" parent="1" source="f69RbL6vU4NUklGSDR2k-5" target="f69RbL6vU4NUklGSDR2k-2">
          <mxGeometry relative="1" as="geometry">
            <mxPoint x="760" y="260" as="targetPoint"/>
            <Array as="points">
              <mxPoint x="260" y="225"/>
              <mxPoint x="130" y="225"/>
              <mxPoint x="130" y="340"/>
            </Array>
          </mxGeometry>
        </mxCell>
        <mxCell id="f69RbL6vU4NUklGSDR2k-5" value="Parse JSON config on load" style="shape=process;whiteSpace=wrap;html=1;backgroundOutline=1;" vertex="1" parent="1">
          <mxGeometry x="200" y="90" width="120" height="60" as="geometry"/>
        </mxCell>
        <mxCell id="f69RbL6vU4NUklGSDR2k-10" value="" style="endArrow=none;html=1;" edge="1" parent="1">
          <mxGeometry width="50" height="50" relative="1" as="geometry">
            <mxPoint x="1160" y="660" as="sourcePoint"/>
            <mxPoint x="1160" y="130" as="targetPoint"/>
          </mxGeometry>
        </mxCell>
        <mxCell id="f69RbL6vU4NUklGSDR2k-11" value="API wall" style="text;html=1;align=center;verticalAlign=middle;resizable=0;points=[];;autosize=1;" vertex="1" parent="1">
          <mxGeometry x="1130" y="90" width="60" height="20" as="geometry"/>
        </mxCell>
        <mxCell id="f69RbL6vU4NUklGSDR2k-16" value="Vuex store" style="swimlane;" vertex="1" parent="1">
          <mxGeometry x="170" y="260" width="400" height="330" as="geometry">
            <mxRectangle x="170" y="260" width="90" height="23" as="alternateBounds"/>
          </mxGeometry>
        </mxCell>
        <mxCell id="f69RbL6vU4NUklGSDR2k-2" value="Config store module" style="shape=cylinder;whiteSpace=wrap;html=1;boundedLbl=1;backgroundOutline=1;" vertex="1" parent="f69RbL6vU4NUklGSDR2k-16">
          <mxGeometry x="30" y="40" width="60" height="80" as="geometry"/>
        </mxCell>
        <mxCell id="f69RbL6vU4NUklGSDR2k-40" value="" style="edgeStyle=orthogonalEdgeStyle;rounded=0;orthogonalLoop=1;jettySize=auto;html=1;" edge="1" parent="f69RbL6vU4NUklGSDR2k-16" source="f69RbL6vU4NUklGSDR2k-20">
          <mxGeometry relative="1" as="geometry">
            <mxPoint x="200" y="160" as="targetPoint"/>
          </mxGeometry>
        </mxCell>
        <mxCell id="f69RbL6vU4NUklGSDR2k-20" value="Legend store module" style="shape=cylinder;whiteSpace=wrap;html=1;boundedLbl=1;backgroundOutline=1;" vertex="1" parent="f69RbL6vU4NUklGSDR2k-16">
          <mxGeometry x="310" y="60" width="60" height="80" as="geometry"/>
        </mxCell>
        <mxCell id="f69RbL6vU4NUklGSDR2k-42" value="Make required changes to layer store" style="shape=process;whiteSpace=wrap;html=1;backgroundOutline=1;" vertex="1" parent="f69RbL6vU4NUklGSDR2k-16">
          <mxGeometry x="140" y="160" width="120" height="60" as="geometry"/>
        </mxCell>
        <mxCell id="f69RbL6vU4NUklGSDR2k-22" value="" style="edgeStyle=orthogonalEdgeStyle;rounded=0;orthogonalLoop=1;jettySize=auto;html=1;entryX=1;entryY=0.5;entryDx=0;entryDy=0;" edge="1" parent="1" source="f69RbL6vU4NUklGSDR2k-17" target="f69RbL6vU4NUklGSDR2k-23">
          <mxGeometry relative="1" as="geometry">
            <mxPoint x="550" y="150" as="targetPoint"/>
          </mxGeometry>
        </mxCell>
        <mxCell id="f69RbL6vU4NUklGSDR2k-26" style="edgeStyle=orthogonalEdgeStyle;rounded=0;orthogonalLoop=1;jettySize=auto;html=1;entryX=0.5;entryY=0;entryDx=0;entryDy=0;" edge="1" parent="1" source="f69RbL6vU4NUklGSDR2k-17" target="f69RbL6vU4NUklGSDR2k-25">
          <mxGeometry relative="1" as="geometry"/>
        </mxCell>
        <mxCell id="f69RbL6vU4NUklGSDR2k-17" value="Legend module" style="rounded=1;whiteSpace=wrap;html=1;" vertex="1" parent="1">
          <mxGeometry x="630" y="90" width="120" height="60" as="geometry"/>
        </mxCell>
        <mxCell id="f69RbL6vU4NUklGSDR2k-19" value="" style="edgeStyle=orthogonalEdgeStyle;rounded=0;orthogonalLoop=1;jettySize=auto;html=1;" edge="1" parent="1" source="f69RbL6vU4NUklGSDR2k-2" target="f69RbL6vU4NUklGSDR2k-23">
          <mxGeometry relative="1" as="geometry">
            <mxPoint x="340" y="340" as="targetPoint"/>
          </mxGeometry>
        </mxCell>
        <mxCell id="f69RbL6vU4NUklGSDR2k-23" value="Read parsed config" style="shape=process;whiteSpace=wrap;html=1;backgroundOutline=1;" vertex="1" parent="1">
          <mxGeometry x="380" y="90" width="120" height="60" as="geometry"/>
        </mxCell>
        <mxCell id="f69RbL6vU4NUklGSDR2k-27" style="edgeStyle=orthogonalEdgeStyle;rounded=0;orthogonalLoop=1;jettySize=auto;html=1;" edge="1" parent="1" source="f69RbL6vU4NUklGSDR2k-25" target="f69RbL6vU4NUklGSDR2k-20">
          <mxGeometry relative="1" as="geometry"/>
        </mxCell>
        <mxCell id="f69RbL6vU4NUklGSDR2k-25" value="Generate legend structure" style="shape=process;whiteSpace=wrap;html=1;backgroundOutline=1;" vertex="1" parent="1">
          <mxGeometry x="630" y="200" width="120" height="60" as="geometry"/>
        </mxCell>
        <mxCell id="f69RbL6vU4NUklGSDR2k-32" value="" style="edgeStyle=orthogonalEdgeStyle;rounded=0;orthogonalLoop=1;jettySize=auto;html=1;" edge="1" parent="1" source="f69RbL6vU4NUklGSDR2k-28" target="f69RbL6vU4NUklGSDR2k-43">
          <mxGeometry relative="1" as="geometry"/>
        </mxCell>
        <mxCell id="f69RbL6vU4NUklGSDR2k-28" value="Render legend UI" style="shape=process;whiteSpace=wrap;html=1;backgroundOutline=1;" vertex="1" parent="1">
          <mxGeometry x="630" y="330" width="120" height="60" as="geometry"/>
        </mxCell>
        <mxCell id="f69RbL6vU4NUklGSDR2k-38" value="update legend store" style="edgeStyle=orthogonalEdgeStyle;rounded=0;orthogonalLoop=1;jettySize=auto;html=1;entryX=0.5;entryY=1;entryDx=0;entryDy=0;" edge="1" parent="1" source="f69RbL6vU4NUklGSDR2k-31" target="f69RbL6vU4NUklGSDR2k-20">
          <mxGeometry relative="1" as="geometry">
            <mxPoint x="750" y="455" as="targetPoint"/>
            <Array as="points">
              <mxPoint x="980" y="455"/>
              <mxPoint x="510" y="455"/>
            </Array>
          </mxGeometry>
        </mxCell>
        <mxCell id="f69RbL6vU4NUklGSDR2k-31" value="User clicks buttons" style="shape=process;whiteSpace=wrap;html=1;backgroundOutline=1;" vertex="1" parent="1">
          <mxGeometry x="860" y="425" width="120" height="60" as="geometry"/>
        </mxCell>
        <mxCell id="f69RbL6vU4NUklGSDR2k-29" style="edgeStyle=orthogonalEdgeStyle;rounded=0;orthogonalLoop=1;jettySize=auto;html=1;entryX=0;entryY=0.5;entryDx=0;entryDy=0;" edge="1" parent="1" source="f69RbL6vU4NUklGSDR2k-20" target="f69RbL6vU4NUklGSDR2k-28">
          <mxGeometry relative="1" as="geometry"/>
        </mxCell>
        <mxCell id="f69RbL6vU4NUklGSDR2k-36" value="" style="endArrow=none;dashed=1;html=1;" edge="1" parent="1">
          <mxGeometry width="50" height="50" relative="1" as="geometry">
            <mxPoint x="834.5" y="520" as="sourcePoint"/>
            <mxPoint x="834.5" y="240" as="targetPoint"/>
          </mxGeometry>
        </mxCell>
        <mxCell id="f69RbL6vU4NUklGSDR2k-44" style="edgeStyle=orthogonalEdgeStyle;rounded=0;orthogonalLoop=1;jettySize=auto;html=1;entryX=1;entryY=0.5;entryDx=0;entryDy=0;exitX=1;exitY=0.3333333333333333;exitDx=0;exitDy=0;exitPerimeter=0;" edge="1" parent="1" source="f69RbL6vU4NUklGSDR2k-43" target="f69RbL6vU4NUklGSDR2k-31">
          <mxGeometry relative="1" as="geometry">
            <mxPoint x="1040" y="480" as="sourcePoint"/>
          </mxGeometry>
        </mxCell>
        <mxCell id="f69RbL6vU4NUklGSDR2k-43" value="Actor" style="shape=umlActor;verticalLabelPosition=bottom;labelBackgroundColor=#ffffff;verticalAlign=top;html=1;outlineConnect=0;" vertex="1" parent="1">
          <mxGeometry x="1000" y="330" width="30" height="60" as="geometry"/>
        </mxCell>
      </root>
    </mxGraphModel>
  </diagram>
</mxfile>
